<svg viewBox="0 0 400 400" version="1.1" xmlns="http://www.w3.org/2000/svg" xmlns:xlink="http://www.w3.org/1999/xlink">
				<g id="icon_container" stroke="none" stroke-width="1" fill="none" fill-rule="evenodd">
					<g id="logo_icon" fill="#000000">
						<path d="M151.987223,210.713486 C151.987223,210.713486 102.884365,217.422775 108.521274,274.923054 C114.158183,332.423333 191.134252,326.649782 216.547908,326.649782 C241.961565,326.649782 318.204265,310.596958 281.044597,234.378473 C243.884929,158.159988 180.977783,156.191654 254.536076,95.8634068 C254.221281,95.7509799 257.981526,96.3650035 256.258801,88.5037723 C256.104863,88.7805153 260.236982,78.1155315 258.247891,73.0839976 C257.42804,73.480086 259.086769,70.3321343 234.745491,79.4179533 C234.486045,80.0198693 227.005114,83.3477041 198.642415,83.3321373 C171.262153,87.8361298 162.313197,111.931798 162.313197,111.931798 C162.313197,111.931798 141.014363,130.224511 132.388629,131.404128 C123.762895,132.583745 150.020618,142.949501 168.493214,137.566849 C169.013837,137.802081 144.023943,188.513508 164.812532,218.012583 C185.601121,247.511659 194.761536,271.39631 196.701975,287.364382 C195.600192,287.710311 134.535117,266.582711 151.987223,210.713486 Z" id="Path-5"></path>
					</g>
				</g>
			</svg>